<svg xmlns="http://www.w3.org/2000/svg" viewBox="0 0 83.12 62.24"><defs><style>.cls-1{fill:#dd6b20;}</style></defs><g id="Layer_2" data-name="Layer 2"><g id="Layer_1-2" data-name="Layer 1"><path class="cls-1" d="M41.56,0A41.56,41.56,0,0,0,0,41.55H83.12A41.56,41.56,0,0,0,41.56,0ZM28.64,33.34a9.49,9.49,0,0,1-7.36,3.39c-5.33,0-9.07-3.79-9.07-9.22,0-4,1.77-9.75,9.05-9.75a8.27,8.27,0,0,1,7.08,3.57l-2.77,2.74a5.36,5.36,0,0,0-4.31-2.54c-3.24,0-4.44,2.22-4.44,5.9S18.24,33,21,33a5,5,0,0,0,3.22-1V29.7H20.38V26.51h8.26Zm20.71,2.85H45L42.05,24.57l-3,11.62H34.67l-4.61-18h4.11l2.74,11,2.84-11h4.52l2.86,11.12,2.75-11.12H54Zm21.83-7.12A32,32,0,0,0,44.33,9.6V4.87A36.79,36.79,0,0,1,78,36H73.22A31.39,31.39,0,0,0,71.18,29.07Z"/><path class="cls-1" d="M40.7,47.26h1V61.35h7v.89h-8Z"/><path class="cls-1" d="M57.47,47.26h1.18l6.19,15h-1l-1.73-4.11H54l-1.73,4.11h-1Zm.6,1-3.72,9h7.44Z"/><path class="cls-1" d="M68.29,47.26h5.43c3,0,4.82,1.29,4.82,3.45,0,2.47-2.27,3.12-3.52,3.49a7.51,7.51,0,0,1,2.25.67,3.61,3.61,0,0,1,1.93,3.22c0,1.37-.81,4.15-5,4.15H68.29Zm1,.83v5.68h3.76c2.64,0,4.49-1.21,4.49-3s-1.46-2.73-3.85-2.73Zm0,6.53v6.77h4.84c2.41,0,4-1.31,4-3.28,0-2.2-2-3.49-5.36-3.49Z"/></g></g></svg>