<svg xmlns="http://www.w3.org/2000/svg" xmlns:xlink="http://www.w3.org/1999/xlink" viewBox="0 0 1017.76 224.41" preserveAspectRatio="none"><defs><style>.cls-1,.cls-3,.cls-4,.cls-5,.cls-6{fill:none;}.cls-2{clip-path:url(#clip-path);}.cls-3,.cls-4,.cls-5,.cls-6{stroke-miterlimit:10;}.cls-3,.cls-4,.cls-5{stroke-width:2px;}.cls-3{stroke:url(#New_Gradient_Swatch_2);}.cls-4{stroke-dasharray:6 3;stroke:url(#New_Gradient_Swatch_2-2);}.cls-5{stroke:url(#New_Gradient_Swatch_2-3);}.cls-6{stroke:url(#New_Gradient_Swatch_2-4);}</style><clipPath id="clip-path" transform="translate(2.3 -8.99)"><rect class="cls-1" width="1014.27" height="248.1"/></clipPath>

<linearGradient id="New_Gradient_Swatch_2" x1="0.66" y1="211" x2="1014.72" y2="211" gradientUnits="userSpaceOnUse">
  <stop offset="0" stop-color="#ff9433">
    <animate attributeName="stop-color" values="#ff9433;#f48b39;#d6734a;#a64b65;#64158a;#4a0098;#64158a;#a64b65;#d6734a;#f48b39;#ff9433" dur="4s" repeatCount="indefinite"></animate>
  </stop>
  <stop offset="0.11" stop-color="#f48b39">
    <animate attributeName="stop-color" values="#f48b39;#d6734a;#a64b65;#64158a;#4a0098;#64158a;#a64b65;#d6734a;#f48b39;#ff9433;#f48b39" dur="4s" repeatCount="indefinite"></animate>
  </stop>
  <stop offset="0.31" stop-color="#d6734a">
    <animate attributeName="stop-color" values="#d6734a;#a64b65;#64158a;#4a0098;#64158a;#a64b65;#d6734a;#f48b39;#ff9433;#f48b39;#d6734a" dur="4s" repeatCount="indefinite"></animate>
  </stop>
  <stop offset="0.57" stop-color="#a64b65">
    <animate attributeName="stop-color" values="#a64b65;#64158a;#4a0098;#64158a;#a64b65;#d6734a;#f48b39;#ff9433;#f48b39;#d6734a;#a64b65" dur="4s" repeatCount="indefinite"></animate>
  </stop>
  <stop offset="0.89" stop-color="#64158a">
    <animate attributeName="stop-color" values="#64158a;#4a0098;#64158a;#a64b65;#d6734a;#f48b39;#ff9433;#f48b39;#d6734a;#a64b65;#64158a" dur="4s" repeatCount="indefinite"></animate>
  </stop>
  <stop offset="1" stop-color="#4a0098">
    <animate attributeName="stop-color" values="#4a0098;#64158a;#a64b65;#d6734a;#f48b39;#ff9433;#f48b39;#d6734a;#a64b65;#64158a;#4a0098" dur="4s" repeatCount="indefinite"></animate>
  </stop>
</linearGradient>

<linearGradient id="New_Gradient_Swatch_2-2" x1="-2.21" y1="117.75" x2="1014.37" y2="117.75" xlink:href="#New_Gradient_Swatch_2"/><linearGradient id="New_Gradient_Swatch_2-3" x1="-2.3" y1="222.87" x2="1014.28" y2="222.87" xlink:href="#New_Gradient_Swatch_2"/><linearGradient id="New_Gradient_Swatch_2-4" x1="-1.79" y1="172.38" x2="1015.46" y2="172.38" xlink:href="#New_Gradient_Swatch_2"/></defs><g id="Layer_2" data-name="Layer 2"><g id="Layer_2-2" data-name="Layer 2"><g class="cls-2"><path class="cls-3" d="M-1.3,219.56c0-1,0-2,0-3" transform="translate(2.3 -8.99)"/><path class="cls-4" d="M-1.21,213.56C1.31,50.46,9.35,10,18.8,10c21.31,0,4.9,209.48,150.09,212.86,113.73,2.65,148.9-51.94,212.22-52.67,59.66-.68,109.55,34.37,226.29,48.32,89,10.62,167.84,6.59,402.37,4.4" transform="translate(2.3 -8.99)"/><path class="cls-5" d="M1011.27,222.88l3,0" transform="translate(2.3 -8.99)"/><path class="cls-6" d="M-1.3,219.56c19-90.27,37.58-107.54,50.59-107.7,36.35-.44,41,74.83,126.63,99.53,95.06,27.43,272.23,11.29,331.82,6.9,118.46-8.72,139.81-27.76,234.5-25.06,92.3,2.62,200.5,36.77,273.2,39.67" transform="translate(2.3 -8.99)"/></g></g></g></svg>
