<svg id="Logo" xmlns="http://www.w3.org/2000/svg" viewBox="0 0 290.33 130"><defs><style>.cls-1{fill:#dd6b20;}.cls-2{fill:none;stroke:#dd6b20;}</style></defs><g id="Text"><path class="cls-1" d="M108.87,100.25a3.9,3.9,0,0,1-1.57,3.31,6.87,6.87,0,0,1-4.27,1.19,10.72,10.72,0,0,1-4.49-.74v-1.8a11.57,11.57,0,0,0,2.2.66,11.89,11.89,0,0,0,2.36.24,4.76,4.76,0,0,0,2.87-.71,2.29,2.29,0,0,0,1-2,2.55,2.55,0,0,0-.34-1.37,3.12,3.12,0,0,0-1.15-1,16,16,0,0,0-2.44-1,8,8,0,0,1-3.28-1.9,4.19,4.19,0,0,1-1-2.88,3.56,3.56,0,0,1,1.43-3,6,6,0,0,1,3.77-1.1,11.48,11.48,0,0,1,4.51.88l-.6,1.63a10.3,10.3,0,0,0-4-.83,3.93,3.93,0,0,0-2.37.63,2.11,2.11,0,0,0-.86,1.78,2.7,2.7,0,0,0,.32,1.37,2.89,2.89,0,0,0,1.06,1,13.26,13.26,0,0,0,2.28,1,9.06,9.06,0,0,1,3.56,1.94A3.74,3.74,0,0,1,108.87,100.25Z"/><path class="cls-1" d="M113.7,92.47v7.83a3.1,3.1,0,0,0,.69,2.2,2.82,2.82,0,0,0,2.14.72,3.55,3.55,0,0,0,2.83-1,5.18,5.18,0,0,0,.89-3.38V92.47h1.86v12.06h-1.54l-.27-1.61h-.1a3.72,3.72,0,0,1-1.59,1.36,5.33,5.33,0,0,1-2.31.47,4.82,4.82,0,0,1-3.37-1,4.44,4.44,0,0,1-1.12-3.35V92.47Z"/><path class="cls-1" d="M131.8,104.75a5.4,5.4,0,0,1-2.2-.43,4.16,4.16,0,0,1-1.67-1.34h-.13a15.71,15.71,0,0,1,.13,2v5h-1.86V92.47h1.51l.26,1.65h.09a4.41,4.41,0,0,1,1.67-1.43,5.27,5.27,0,0,1,2.2-.44,4.57,4.57,0,0,1,3.77,1.64,8.55,8.55,0,0,1,0,9.22A4.6,4.6,0,0,1,131.8,104.75Zm-.27-11a3.31,3.31,0,0,0-2.73,1,5.15,5.15,0,0,0-.87,3.25v.41a5.91,5.91,0,0,0,.87,3.64,3.31,3.31,0,0,0,2.77,1.09,2.91,2.91,0,0,0,2.5-1.26,6,6,0,0,0,.9-3.49,5.71,5.71,0,0,0-.9-3.46A3,3,0,0,0,131.53,93.8Z"/><path class="cls-1" d="M145.36,104.75a5.68,5.68,0,0,1-4.3-1.63,6.18,6.18,0,0,1-1.58-4.52A6.92,6.92,0,0,1,140.94,94a4.9,4.9,0,0,1,3.94-1.72,4.7,4.7,0,0,1,3.66,1.49,5.66,5.66,0,0,1,1.35,3.94v1.15h-8.48a4.72,4.72,0,0,0,1.1,3.23,3.82,3.82,0,0,0,2.92,1.1,9.93,9.93,0,0,0,3.93-.82V104a9.82,9.82,0,0,1-1.87.6A10.85,10.85,0,0,1,145.36,104.75Zm-.5-11a3.1,3.1,0,0,0-2.37,1,4.38,4.38,0,0,0-1,2.62h6.44a3.92,3.92,0,0,0-.79-2.65A2.79,2.79,0,0,0,144.86,93.78Z"/><path class="cls-1" d="M158.68,92.25a8.23,8.23,0,0,1,1.48.13l-.26,1.7a6.54,6.54,0,0,0-1.35-.17A3.32,3.32,0,0,0,156,95.1a4.31,4.31,0,0,0-1.06,3v6.47h-1.86V92.47h1.54l.21,2.24h.09a5.42,5.42,0,0,1,1.65-1.82A3.75,3.75,0,0,1,158.68,92.25Z"/><path class="cls-1" d="M167.38,104.75a5.3,5.3,0,0,1-4.14-1.61,6.51,6.51,0,0,1-1.47-4.56,6.76,6.76,0,0,1,1.49-4.68,5.42,5.42,0,0,1,4.24-1.65,8.35,8.35,0,0,1,1.78.19,5.7,5.7,0,0,1,1.39.44l-.57,1.55a9.75,9.75,0,0,0-1.35-.4,6,6,0,0,0-1.29-.16q-3.75,0-3.75,4.69a5.5,5.5,0,0,0,.91,3.41,3.21,3.21,0,0,0,2.71,1.19,8.51,8.51,0,0,0,3.16-.65v1.62A6.94,6.94,0,0,1,167.38,104.75Z"/><path class="cls-1" d="M184,98.49a6.58,6.58,0,0,1-1.51,4.61,5.41,5.41,0,0,1-4.19,1.65,5.59,5.59,0,0,1-2.93-.76,4.94,4.94,0,0,1-2-2.18,7.48,7.48,0,0,1-.7-3.32,6.56,6.56,0,0,1,1.51-4.59,5.37,5.37,0,0,1,4.18-1.65,5.22,5.22,0,0,1,4.1,1.69A6.5,6.5,0,0,1,184,98.49Zm-9.37,0a5.62,5.62,0,0,0,.94,3.52,3.29,3.29,0,0,0,2.77,1.21,3.33,3.33,0,0,0,2.78-1.2,5.56,5.56,0,0,0,.95-3.53,5.46,5.46,0,0,0-.95-3.49,3.84,3.84,0,0,0-5.56,0A5.61,5.61,0,0,0,174.66,98.49Z"/><path class="cls-1" d="M203,104.53V96.69a3.3,3.3,0,0,0-.62-2.17,2.48,2.48,0,0,0-2-.72,3.19,3.19,0,0,0-2.57,1,4.58,4.58,0,0,0-.83,3v6.73h-1.87V96.69a3.25,3.25,0,0,0-.63-2.17,2.47,2.47,0,0,0-2-.72,3.09,3.09,0,0,0-2.57,1,5.52,5.52,0,0,0-.81,3.38v6.32H187.3V92.47h1.52l.3,1.65h.09a3.66,3.66,0,0,1,1.49-1.37,4.63,4.63,0,0,1,2.15-.5c1.93,0,3.18.68,3.78,2h.09a3.85,3.85,0,0,1,1.59-1.5,5,5,0,0,1,2.38-.55,4.23,4.23,0,0,1,3.13,1,4.65,4.65,0,0,1,1,3.36v7.87Z"/><path class="cls-1" d="M214.43,104.75a5.47,5.47,0,0,1-2.2-.43,4.16,4.16,0,0,1-1.67-1.34h-.13a15.71,15.71,0,0,1,.13,2v5H208.7V92.47h1.52l.25,1.65h.09a4.36,4.36,0,0,1,1.68-1.43,5.19,5.19,0,0,1,2.19-.44,4.61,4.61,0,0,1,3.78,1.64,8.6,8.6,0,0,1,0,9.22A4.63,4.63,0,0,1,214.43,104.75Zm-.27-11a3.31,3.31,0,0,0-2.73,1,5.22,5.22,0,0,0-.87,3.25v.41a5.91,5.91,0,0,0,.87,3.64,3.32,3.32,0,0,0,2.77,1.09,2.9,2.9,0,0,0,2.5-1.26,5.88,5.88,0,0,0,.91-3.49A5.64,5.64,0,0,0,216.7,95,3,3,0,0,0,214.16,93.8Z"/><path class="cls-1" d="M224.55,92.47v7.83a3.15,3.15,0,0,0,.68,2.2,2.86,2.86,0,0,0,2.15.72,3.52,3.52,0,0,0,2.82-1,5.12,5.12,0,0,0,.9-3.38V92.47H233v12.06h-1.54l-.27-1.61h-.1a3.72,3.72,0,0,1-1.59,1.36,5.37,5.37,0,0,1-2.32.47,4.79,4.79,0,0,1-3.36-1,4.4,4.4,0,0,1-1.12-3.35V92.47Z"/><path class="cls-1" d="M240.89,103.25a6,6,0,0,0,1-.08,4.19,4.19,0,0,0,.73-.15v1.4a3.25,3.25,0,0,1-.9.24,7,7,0,0,1-1.06.09q-3.57,0-3.57-3.68V93.89h-1.76V93l1.76-.76.79-2.57h1.07v2.79h3.58v1.42h-3.58V101a2.41,2.41,0,0,0,.53,1.67A1.86,1.86,0,0,0,240.89,103.25Z"/><path class="cls-1" d="M244.88,89.2a1.22,1.22,0,0,1,.31-.92A1.13,1.13,0,0,1,246,88a1.08,1.08,0,0,1,.77.3,1.16,1.16,0,0,1,.33.91,1.19,1.19,0,0,1-.33.92,1.09,1.09,0,0,1-.77.31,1.1,1.1,0,0,1-.79-.31A1.22,1.22,0,0,1,244.88,89.2Zm2,15.33H245V92.47h1.86Z"/><path class="cls-1" d="M259.28,104.53v-7.8a3.09,3.09,0,0,0-.69-2.2,2.82,2.82,0,0,0-2.14-.73,3.55,3.55,0,0,0-2.83,1,5.09,5.09,0,0,0-.9,3.38v6.32h-1.87V92.47h1.52l.3,1.65h.09a3.89,3.89,0,0,1,1.61-1.38,5.42,5.42,0,0,1,2.3-.49,4.75,4.75,0,0,1,3.35,1,4.41,4.41,0,0,1,1.12,3.36v7.87Z"/><path class="cls-1" d="M275.22,92.28v1.14l-2.24.26a3.52,3.52,0,0,1,.55,1,3.57,3.57,0,0,1,.25,1.38,3.47,3.47,0,0,1-1.22,2.78,5,5,0,0,1-3.33,1,5.45,5.45,0,0,1-1-.09,1.76,1.76,0,0,0-1.17,1.53.79.79,0,0,0,.41.72,3.1,3.1,0,0,0,1.4.23H271a4.87,4.87,0,0,1,3,.81,2.78,2.78,0,0,1,1.06,2.36,3.36,3.36,0,0,1-1.61,3,8.8,8.8,0,0,1-4.71,1,6.51,6.51,0,0,1-3.66-.87,2.78,2.78,0,0,1-1.29-2.45,2.73,2.73,0,0,1,.71-1.87,3.66,3.66,0,0,1,2-1.07,1.92,1.92,0,0,1-.78-.64,1.66,1.66,0,0,1-.32-1,1.87,1.87,0,0,1,.36-1.14,3.59,3.59,0,0,1,1.11-.94,3.28,3.28,0,0,1-1.53-1.29,4.19,4.19,0,0,1,.61-5.08,4.94,4.94,0,0,1,3.38-1.06,6.44,6.44,0,0,1,1.71.22Zm-9.65,13.85a1.61,1.61,0,0,0,.83,1.46,4.54,4.54,0,0,0,2.37.5,6.76,6.76,0,0,0,3.42-.67,2.09,2.09,0,0,0,1.11-1.84,1.44,1.44,0,0,0-.61-1.34,4.88,4.88,0,0,0-2.28-.37h-2.2a2.92,2.92,0,0,0-1.94.59A2,2,0,0,0,265.57,106.13Zm1-10a2.37,2.37,0,0,0,.72,1.88,2.9,2.9,0,0,0,2,.64c1.79,0,2.69-.85,2.69-2.55a2.39,2.39,0,0,0-2.72-2.68,2.43,2.43,0,0,0-2.69,2.71Z"/><path class="cls-1" d="M253.74,24h5.16q4.41,0,6.41,1.51c1.33,1,2,2.67,2,5a6.34,6.34,0,0,1-2,5.08c-1.3,1.13-3.36,1.7-6.16,1.7h-5.44Zm0,31.06V40.69h7.12l8.26,14.39h4.69l-9.26-15.54q6.85-2.4,6.86-9.27,0-4.87-3-7.3t-9.28-2.43h-9.35V55.08Zm-25.27-25.3a48.84,48.84,0,0,0,1.47-5c.54,2,1.07,3.63,1.58,5l4,10.7h-11Zm-9.62,25.3,4.2-11h13.68l4.25,11h4.1L231.66,20.4h-3.33L214.84,55.08ZM199.62,24.13v31h4V24.13h10.8V20.54H188.81v3.59ZM173.93,55.55c3.73,0,6.67-.84,8.85-2.54A8.47,8.47,0,0,0,186,45.93a8.34,8.34,0,0,0-2-5.78q-2-2.22-7.37-4.16a27,27,0,0,1-4.76-2.12,6.24,6.24,0,0,1-2.21-2.1,5.88,5.88,0,0,1-.66-2.95A4.55,4.55,0,0,1,170.82,25a7.94,7.94,0,0,1,4.93-1.37,20.84,20.84,0,0,1,8.21,1.8l1.22-3.5a22.75,22.75,0,0,0-9.33-1.89A12.19,12.19,0,0,0,168,22.41a7.73,7.73,0,0,0-2.95,6.36,9.18,9.18,0,0,0,2,6.18q2,2.37,6.78,4.09a33.52,33.52,0,0,1,5.09,2.2,6.7,6.7,0,0,1,2.38,2.12,5.49,5.49,0,0,1,.72,3,5,5,0,0,1-2,4.24q-2,1.53-6,1.53a23.53,23.53,0,0,1-4.9-.52,24.44,24.44,0,0,1-4.57-1.42V54c2.17,1,5.29,1.56,9.33,1.56m-19.55-6H142.19L154,33.35V28.67H134.49v5.5h11.37L133.77,50.83v4.25h20.61ZM107,29a7.58,7.58,0,0,1,6.51-2.95q8.61,0,8.61,11.67t-8.66,11.65A7.57,7.57,0,0,1,107,46.48c-1.44-1.95-2.17-4.86-2.17-8.72S105.53,31,107,29m18.54-4.46q-4.17-4.57-12-4.58t-12.08,4.55q-4.22,4.54-4.21,13.17T101.42,51q4.2,4.61,12,4.6t12-4.6q4.22-4.61,4.21-13.19t-4.17-13.18"/></g><g id="Graphic"><path class="cls-2" d="M57.54,108.74a7.29,7.29,0,1,0-7.37-7.29A7.33,7.33,0,0,0,57.54,108.74Z"/><path class="cls-2" d="M27.37,26.3A7.29,7.29,0,1,0,20,19,7.32,7.32,0,0,0,27.37,26.3Z"/><path class="cls-2" d="M11.67.13s-.07,45.07,0,51.59,5.66,5.6,5.66,5.6H53.47a3.87,3.87,0,0,1,4,4.24V94.33"/><path class="cls-2" d="M15.67,130V89.6s.29-4.38-3.77-4.38h-12"/><path class="cls-2" d="M35.25,130V74.69s.15-3-4.55-3H-.08"/><path class="cls-2" d="M27.29,26.75V43.87s0,2.93,3.54,3.22,42.48.14,42.48.14"/><path class="cls-2" d="M289.85,71,82.3,70.8s-4.87,0-4.56,6.39C77.9,80.54,78,130,78,130"/><path class="cls-2" d="M45.49.13c0,.58.06,21.54.06,21.54a5.38,5.38,0,0,0,5.55,5.88c4.3.15,21.33-.22,21.33-.22"/><path class="cls-2" d="M80.26,34.19a7.29,7.29,0,1,0-7.37-7.28A7.32,7.32,0,0,0,80.26,34.19Z"/><path class="cls-2" d="M80.26,54.75a7.29,7.29,0,1,0-7.37-7.29A7.33,7.33,0,0,0,80.26,54.75Z"/></g><rect class="cls-2" y="0.13" width="289.85" height="129.83"/></svg>